<svg xmlns="http://www.w3.org/2000/svg" viewBox="0 0 160 40">
  <text x="0" y="30" font-family="Arial, sans-serif" font-weight="bold" font-size="28" fill="#333333">Linux</text>
  <g transform="translate(80, 2) scale(0.45)">
    <path d="M44.5 4C41.5 4 39 8 38 13C37 18 37.5 24 36 28C34.5 32 31 35 29 40C27 45 27 50 29 54C31 58 35 60 37 64C39 68 39 74 37.5 78C36 82 33 84 32 88C31 92 32 98 35 100C38 102 43 100 46 96C49 92 50 86 50 80C50 74 49 68 50 63C51 58 54 54 55 49C56 44 55 38 53 33C51 28 48 24 46.5 18C45 12 45.5 4 44.5 4Z" fill="#F5A623"/>
    <ellipse cx="42" cy="12" rx="3" ry="4" fill="white"/>
    <ellipse cx="47" cy="12" rx="3" ry="4" fill="white"/>
    <circle cx="42" cy="13" r="1.5" fill="black"/>
    <circle cx="47" cy="13" r="1.5" fill="black"/>
    <path d="M43 19 Q44.5 22 46 19" stroke="#E8A000" stroke-width="1.5" fill="none"/>
  </g>
</svg>